<?xml version="1.0" encoding="UTF-8" standalone="no"?>
<!-- Created with Inkscape (http://www.inkscape.org/) -->

<svg
   version="1.1"
   id="svg13215"
   width="81.874603"
   height="74.582489"
   viewBox="0 0 81.874605 74.582489"
   sodipodi:docname="Kettlebell_stars_logo.svg"
   inkscape:version="1.1.1 (3bf5ae0d25, 2021-09-20)"
   xmlns:inkscape="http://www.inkscape.org/namespaces/inkscape"
   xmlns:sodipodi="http://sodipodi.sourceforge.net/DTD/sodipodi-0.dtd"
   xmlns:xlink="http://www.w3.org/1999/xlink"
   xmlns="http://www.w3.org/2000/svg"
   xmlns:svg="http://www.w3.org/2000/svg">
  <defs
     id="defs13219">
    <filter
       inkscape:collect="always"
       style="color-interpolation-filters:sRGB"
       id="filter305723"
       x="-0.3736284"
       y="-0.3736284"
       width="1.7472568"
       height="1.7472568">
      <feGaussianBlur
         inkscape:collect="always"
         stdDeviation="6.3043296"
         id="feGaussianBlur305725" />
    </filter>
  </defs>
  <sodipodi:namedview
     id="namedview13217"
     pagecolor="#ffffff"
     bordercolor="#666666"
     borderopacity="1.0"
     inkscape:pageshadow="2"
     inkscape:pageopacity="0.0"
     inkscape:pagecheckerboard="0"
     showgrid="false"
     inkscape:zoom="5.6568543"
     inkscape:cx="49.409086"
     inkscape:cy="43.221902"
     inkscape:window-width="1920"
     inkscape:window-height="1003"
     inkscape:window-x="-9"
     inkscape:window-y="-9"
     inkscape:window-maximized="1"
     inkscape:current-layer="g887"
     inkscape:snap-intersection-paths="true"
     showguides="true"
     inkscape:guide-bbox="true"
     inkscape:object-nodes="false"
     inkscape:object-paths="true"
     inkscape:snap-text-baseline="true"
     fit-margin-top="0"
     fit-margin-left="0"
     fit-margin-right="0"
     fit-margin-bottom="0"
     showborder="false" />
  <g
     inkscape:groupmode="layer"
     inkscape:label="Image"
     id="g13221"
     transform="translate(-16.820084,-1.2728471)">
    <g
       id="g333798"
       transform="translate(0.76952896,81.320556)">
      <g
         id="g887">
        <circle
           style="font-variation-settings:normal;opacity:1;fill:none;fill-opacity:1;fill-rule:evenodd;stroke:#301616;stroke-width:0;stroke-linecap:butt;stroke-linejoin:miter;stroke-miterlimit:4;stroke-dasharray:none;stroke-dashoffset:0;stroke-opacity:1;stop-color:#000000;stop-opacity:1"
           id="path271258"
           cx="-67.315178"
           cy="14.08559"
           r="29.265509"
           transform="matrix(-0.62990035,0.77667596,0.77667596,0.62990035,0,0)" />
        <path
           sodipodi:type="star"
           style="opacity:0.984326;fill:none;fill-opacity:1;stroke:#301616;stroke-width:0;stroke-miterlimit:4;stroke-dasharray:none;stroke-opacity:1"
           id="path332429"
           inkscape:flatsided="false"
           sodipodi:sides="5"
           sodipodi:cx="97.573677"
           sodipodi:cy="-22.543402"
           sodipodi:r1="0.39528471"
           sodipodi:r2="0.19764236"
           sodipodi:arg1="2.038024"
           sodipodi:arg2="2.6663426"
           inkscape:rounded="0"
           inkscape:randomized="0"
           d="m 97.395636,-22.190483 0.0023,-0.262485 -0.214924,-0.150703 0.250349,-0.07892 0.07691,-0.250975 0.152423,0.213708 0.262458,-0.0044 -0.156147,0.211002 0.0853,0.24825 -0.248926,-0.0833 z"
           inkscape:transform-center-x="0.019592199"
           inkscape:transform-center-y="-0.018624338" />
        <path
           sodipodi:type="star"
           style="opacity:0.984326;fill:none;fill-opacity:1;stroke:#301616;stroke-width:0;stroke-miterlimit:4;stroke-dasharray:none;stroke-opacity:1"
           id="path332497"
           inkscape:flatsided="false"
           sodipodi:sides="5"
           sodipodi:cx="36.850224"
           sodipodi:cy="-47.156139"
           sodipodi:r1="8.6177502"
           sodipodi:r2="4.3088751"
           sodipodi:arg1="1.2072026"
           sodipodi:arg2="1.8355211"
           inkscape:rounded="0"
           inkscape:randomized="0"
           d="m 39.915,-39.101776 -4.192166,-3.89559 -5.585697,1.244937 2.409475,-5.19079 -2.91008,-4.927607 5.681303,0.687505 3.787168,-4.290365 1.101764,5.615691 5.250679,2.276015 -5.000376,2.783184 z"
           inkscape:transform-center-x="-0.69676533"
           inkscape:transform-center-y="-0.1315919" />
        <g
           id="g906">
          <circle
             style="font-variation-settings:normal;opacity:0.984326;fill:#1f27a5;fill-opacity:1;fill-rule:evenodd;stroke:#ef0f0f;stroke-width:0;stroke-linecap:butt;stroke-linejoin:miter;stroke-miterlimit:4;stroke-dasharray:none;stroke-dashoffset:0;stroke-opacity:1;filter:url(#filter305723);stop-color:#000000;stop-opacity:1"
             id="path13489"
             cx="-55.637302"
             cy="39.723461"
             r="20.247913"
             transform="rotate(176.81162)" />
          <g
             id="g172064"
             transform="matrix(1.3969383,0,0,1.3969383,-64.4077,-127.9682)">
            <path
               style="fill:#b42713;fill-opacity:1;stroke-width:0.0526651"
               d="m 83.362976,72.19806 c -1.226935,-0.100613 -2.590665,-0.631246 -3.564977,-1.387152 -0.232851,-0.180656 -0.487654,-0.375863 -0.566227,-0.433795 -0.440867,-0.325047 -1.149309,-1.119005 -1.456771,-1.632616 -0.206501,-0.344956 -0.412853,-0.786888 -0.635611,-1.36125 -0.500271,-1.289904 -0.669611,-3.202671 -0.385941,-4.359363 0.08608,-0.351 0.10538,-0.771203 0.153627,-3.34423 0.08851,-4.720554 0.128741,-5.44568 0.349374,-6.297129 0.248576,-0.959289 0.98776,-1.923909 1.886744,-2.462168 0.887535,-0.531402 2.54592,-0.954586 4.365962,-1.114097 0.665605,-0.05834 2.507676,-0.04017 3.119051,0.03076 0.115862,0.01344 0.352856,0.03818 0.526651,0.05498 0.392299,0.03791 1.629903,0.270104 1.843277,0.34583 0.0869,0.03085 0.23621,0.0793 0.331807,0.107701 0.305604,0.09077 0.787945,0.407708 1.101603,0.723855 0.374907,0.377882 0.824072,1.120053 0.975761,1.612282 0.14112,0.457935 0.150985,1.222514 0.0479,3.712886 -0.03896,0.941389 -0.07451,2.50554 -0.079,3.475894 l -0.0081,1.764279 0.149439,0.473986 c 0.579056,1.836643 0.595095,3.063347 0.06138,4.694813 -0.187297,0.57253 -0.608405,1.51374 -0.774168,1.730323 -0.667501,0.872149 -1.203641,1.442292 -1.832911,1.949157 -0.246209,0.198316 -0.477278,0.396423 -0.513485,0.440237 -0.03621,0.04381 -0.06584,0.06121 -0.06584,0.03865 0,-0.02256 -0.152322,0.06767 -0.338493,0.200523 -0.433545,0.309371 -0.868048,0.508832 -1.547636,0.710447 -1.010669,0.299838 -2.090486,0.411558 -3.143382,0.325218 z M 81.611848,57.373535 c 1.264961,-0.412918 1.72236,-0.50449 2.521499,-0.504806 0.352433,-1.59e-4 0.705734,0.0427 1.158631,0.14048 0.479991,0.103633 0.81108,0.141773 1.257233,0.144829 0.593575,0.0041 0.611947,6.1e-4 0.921637,-0.173381 0.600835,-0.337557 0.900146,-0.830666 1.051044,-1.731577 0.04245,-0.253452 0.101661,-0.603018 0.13158,-0.776811 0.06703,-0.389393 0.07111,-0.978423 0.0079,-1.142037 -0.215735,-0.558483 -1.155525,-0.780238 -3.306617,-0.780238 -1.233811,0 -2.434576,0.136762 -3.465452,0.394701 -0.840749,0.210368 -1.210828,0.418693 -1.497412,0.842928 -0.247171,0.365889 -0.287519,0.58268 -0.252247,1.355305 0.05216,1.142512 0.227321,1.760479 0.60651,2.139748 0.213429,0.213475 0.244425,0.227477 0.43581,0.196874 0.113316,-0.01812 0.306766,-0.06582 0.429877,-0.106016 z"
               id="path70732"
               sodipodi:nodetypes="ssssssssssssscsssccssssssssssssscssscssssssss" />
            <path
               style="fill:none;stroke:#000000;stroke-width:0.01;stroke-linecap:butt;stroke-linejoin:miter;stroke-miterlimit:4;stroke-dasharray:none;stroke-opacity:1"
               d="m 77.028101,55.15625 c 0.485415,0.328125 1.244268,0.449219 3.132027,0.328125"
               id="path5334"
               sodipodi:nodetypes="cc" />
            <path
               style="fill:none;stroke:#000000;stroke-width:0.01;stroke-linecap:butt;stroke-linejoin:miter;stroke-miterlimit:4;stroke-dasharray:none;stroke-opacity:1"
               d="m 88.537466,55.15625 c 0.502483,0.489678 1.327922,0.494988 2.953002,0.328125"
               id="path6033"
               sodipodi:nodetypes="cc" />
            <path
               style="fill:#9d9d9d;fill-opacity:1;stroke:#ef0f0f;stroke-width:0.000220971;stroke-miterlimit:4;stroke-dasharray:none"
               d="m 89.471105,55.539362 c -0.338058,-0.04616 -0.665537,-0.173194 -0.847535,-0.328758 l -0.07414,-0.06337 0.07344,-0.416297 c 0.06773,-0.383941 0.0735,-0.453223 0.07414,-0.891385 l 6.94e-4,-0.475087 -0.06559,-0.118414 c -0.112644,-0.203373 -0.29911,-0.335226 -0.631613,-0.446625 -0.409014,-0.137032 -0.894932,-0.203218 -1.788722,-0.243639 -2.234447,-0.101051 -4.70175,0.275651 -5.462342,0.833977 -0.218489,0.160386 -0.428648,0.438126 -0.539865,0.713471 -0.07871,0.194863 -0.10601,0.525797 -0.08124,0.984803 0.01115,0.206607 0.01911,0.37791 0.0177,0.380671 -0.0014,0.0028 -0.287573,0.01688 -0.635908,0.03138 -0.931154,0.03875 -1.645098,-0.01524 -2.051808,-0.155171 -0.16749,-0.05763 -0.394548,-0.175468 -0.408588,-0.212057 -0.03042,-0.07928 0.06896,-1.044365 0.149114,-1.447985 0.250174,-1.259819 1.15467,-2.404825 2.331867,-2.951922 0.85298,-0.396419 2.113402,-0.706112 3.548955,-0.871999 0.991419,-0.114565 2.740197,-0.103498 3.902404,0.0247 1.017355,0.112216 2.180743,0.368263 2.577428,0.567259 0.335409,0.168257 0.762007,0.49995 0.996591,0.774881 0.306831,0.359604 0.702826,1.035957 0.823097,1.405835 0.0825,0.253728 0.114904,0.541122 0.127239,1.128588 0.01128,0.537445 -0.01284,1.675118 -0.03602,1.698285 -0.0063,0.0063 -0.18036,0.02781 -0.386699,0.04771 -0.443861,0.04279 -1.393081,0.06114 -1.612598,0.03116 z"
               id="path7850" />
          </g>
          <text
             xml:space="preserve"
             style="font-style:normal;font-weight:normal;font-size:8px;line-height:1.25;font-family:sans-serif;letter-spacing:2.65px;fill:#000000;fill-opacity:1;stroke:none"
             id="text179359"><textPath
               xlink:href="#path13489"
               id="textPath244923"
               style="font-style:normal;font-variant:normal;font-weight:normal;font-stretch:normal;font-size:8px;font-family:'Maiandra GD';-inkscape-font-specification:'Maiandra GD, Normal';font-variant-ligatures:normal;font-variant-caps:normal;font-variant-numeric:normal;font-variant-east-asian:normal">KETTLEBELL</textPath></text>
          <text
             xml:space="preserve"
             style="font-style:normal;font-variant:normal;font-weight:normal;font-stretch:normal;font-size:8px;line-height:1.25;font-family:sans-serif;-inkscape-font-specification:sans-serif;letter-spacing:5.26px;fill:#000000;fill-opacity:1;stroke:none"
             id="text275474"><textPath
               xlink:href="#path271258"
               id="textPath277588"
               style="font-style:normal;font-variant:normal;font-weight:normal;font-stretch:normal;font-size:8px;font-family:'Maiandra GD';-inkscape-font-specification:'Maiandra GD, Normal';font-variant-ligatures:normal;font-variant-caps:normal;font-variant-numeric:normal;font-variant-east-asian:normal">STARS</textPath></text>
          <path
             sodipodi:type="star"
             style="opacity:0.984326;fill:#ececec;fill-opacity:1;stroke:#301616;stroke-width:0;stroke-miterlimit:4;stroke-dasharray:none;stroke-opacity:1"
             id="path332681"
             inkscape:flatsided="false"
             sodipodi:sides="5"
             sodipodi:cx="39.515865"
             sodipodi:cy="-49.539291"
             sodipodi:r1="2.7085028"
             sodipodi:r2="1.3542515"
             sodipodi:arg1="0.73085318"
             sodipodi:arg2="1.3591717"
             inkscape:rounded="0"
             inkscape:randomized="0"
             d="m 41.53263,-47.731352 -1.732306,-0.4839 -1.380697,1.152702 -0.07509,-1.797055 -1.522944,-0.956915 1.685895,-0.626741 0.439465,-1.744109 1.117036,1.409708 1.794549,-0.121003 -0.995529,1.497988 z"
             inkscape:transform-center-x="-0.0091228739"
             inkscape:transform-center-y="-0.24994393"
             transform="rotate(12.749974,-60.941227,57.378963)" />
          <path
             sodipodi:type="star"
             style="opacity:0.984326;fill:#ececec;fill-opacity:1;stroke:#301616;stroke-width:0;stroke-miterlimit:4;stroke-dasharray:none;stroke-opacity:1"
             id="path333173"
             inkscape:flatsided="false"
             sodipodi:sides="5"
             sodipodi:cx="39.515865"
             sodipodi:cy="-49.539291"
             sodipodi:r1="2.7085028"
             sodipodi:r2="1.3542515"
             sodipodi:arg1="0.73085318"
             sodipodi:arg2="1.3591717"
             inkscape:rounded="0"
             inkscape:randomized="0"
             d="m 41.53263,-47.731352 -1.732306,-0.4839 -1.380697,1.152702 -0.07509,-1.797055 -1.522944,-0.956915 1.685895,-0.626741 0.439465,-1.744109 1.117036,1.409708 1.794549,-0.121003 -0.995529,1.497988 z"
             inkscape:transform-center-x="-0.0091228739"
             inkscape:transform-center-y="-0.24994393"
             transform="rotate(12.749974,-23.106555,-53.023404)" />
          <path
             sodipodi:type="star"
             style="opacity:0.984326;fill:#ececec;fill-opacity:1;stroke:#301616;stroke-width:0;stroke-miterlimit:4;stroke-dasharray:none;stroke-opacity:1"
             id="path333175"
             inkscape:flatsided="false"
             sodipodi:sides="5"
             sodipodi:cx="39.515865"
             sodipodi:cy="-49.539291"
             sodipodi:r1="2.7085028"
             sodipodi:r2="1.3542515"
             sodipodi:arg1="0.73085318"
             sodipodi:arg2="1.3591717"
             inkscape:rounded="0"
             inkscape:randomized="0"
             d="m 41.53263,-47.731352 -1.732306,-0.4839 -1.380697,1.152702 -0.07509,-1.797055 -1.522944,-0.956915 1.685895,-0.626741 0.439465,-1.744109 1.117036,1.409708 1.794549,-0.121003 -0.995529,1.497988 z"
             inkscape:transform-center-x="-0.0091228739"
             inkscape:transform-center-y="-0.24994393"
             transform="rotate(12.749974,-70.404891,1.5996073)" />
          <path
             sodipodi:type="star"
             style="opacity:0.984326;fill:#ececec;fill-opacity:1;stroke:#301616;stroke-width:0;stroke-miterlimit:4;stroke-dasharray:none;stroke-opacity:1"
             id="path333177"
             inkscape:flatsided="false"
             sodipodi:sides="5"
             sodipodi:cx="39.515865"
             sodipodi:cy="-49.539291"
             sodipodi:r1="2.7085028"
             sodipodi:r2="1.3542515"
             sodipodi:arg1="0.73085318"
             sodipodi:arg2="1.3591717"
             inkscape:rounded="0"
             inkscape:randomized="0"
             d="m 41.53263,-47.731352 -1.732306,-0.4839 -1.380697,1.152702 -0.07509,-1.797055 -1.522944,-0.956915 1.685895,-0.626741 0.439465,-1.744109 1.117036,1.409708 1.794549,-0.121003 -0.995529,1.497988 z"
             inkscape:transform-center-x="-0.0091228739"
             inkscape:transform-center-y="-0.24994393"
             transform="rotate(12.749974,53.146546,81.41054)" />
          <path
             sodipodi:type="star"
             style="opacity:0.984326;fill:#ececec;fill-opacity:1;stroke:#301616;stroke-width:0;stroke-miterlimit:4;stroke-dasharray:none;stroke-opacity:1"
             id="path333179"
             inkscape:flatsided="false"
             sodipodi:sides="5"
             sodipodi:cx="39.515865"
             sodipodi:cy="-49.539291"
             sodipodi:r1="2.7085028"
             sodipodi:r2="1.3542515"
             sodipodi:arg1="0.73085318"
             sodipodi:arg2="1.3591717"
             inkscape:rounded="0"
             inkscape:randomized="0"
             d="m 41.53263,-47.731352 -1.732306,-0.4839 -1.380697,1.152702 -0.07509,-1.797055 -1.522944,-0.956915 1.685895,-0.626741 0.439465,-1.744109 1.117036,1.409708 1.794549,-0.121003 -0.995529,1.497988 z"
             inkscape:transform-center-x="-0.0091228739"
             inkscape:transform-center-y="-0.24994393"
             transform="rotate(12.749974,35.848524,-58.907283)" />
          <path
             sodipodi:type="star"
             style="opacity:0.984326;fill:#ececec;fill-opacity:1;stroke:#301616;stroke-width:0;stroke-miterlimit:4;stroke-dasharray:none;stroke-opacity:1"
             id="path333181"
             inkscape:flatsided="false"
             sodipodi:sides="5"
             sodipodi:cx="39.515865"
             sodipodi:cy="-49.539291"
             sodipodi:r1="2.7085028"
             sodipodi:r2="1.3542515"
             sodipodi:arg1="0.73085318"
             sodipodi:arg2="1.3591717"
             inkscape:rounded="0"
             inkscape:randomized="0"
             d="m 41.53263,-47.731352 -1.732306,-0.4839 -1.380697,1.152702 -0.07509,-1.797055 -1.522944,-0.956915 1.685895,-0.626741 0.439465,-1.744109 1.117036,1.409708 1.794549,-0.121003 -0.995529,1.497988 z"
             inkscape:transform-center-x="-0.0091228739"
             inkscape:transform-center-y="-0.24994393"
             transform="rotate(12.749974,-5.8341466,90.520189)" />
        </g>
      </g>
    </g>
  </g>
</svg>
